<svg width="17" height="18" viewBox="0 0 17 18" fill="none" xmlns="http://www.w3.org/2000/svg">
<mask id="path-1-inside-1_2530_1452" fill="white">
<path fill-rule="evenodd" clip-rule="evenodd" d="M5.00013 14C4.08346 14 3.3418 14.75 3.3418 15.6667C3.3418 16.5833 4.08346 17.3333 5.00013 17.3333C5.9168 17.3333 6.6668 16.5833 6.6668 15.6667C6.6668 14.75 5.9168 14 5.00013 14ZM0 2.33317H1.66667L4.66667 8.65817L3.54167 10.6998C3.40833 10.9332 3.33333 11.2082 3.33333 11.4998C3.33333 12.4165 4.08333 13.1665 5 13.1665H15V11.4998H5.35C5.23333 11.4998 5.14167 11.4082 5.14167 11.2915L5.16667 11.1915L5.91667 9.83317H12.125C12.75 9.83317 13.3 9.4915 13.5833 8.97484L16.5667 3.5665C16.6333 3.44984 16.6667 3.30817 16.6667 3.1665C16.6667 2.70817 16.2917 2.33317 15.8333 2.33317H3.50833L2.725 0.666504H0V2.33317ZM13.3331 14C12.4165 14 11.6748 14.75 11.6748 15.6667C11.6748 16.5833 12.4165 17.3333 13.3331 17.3333C14.2498 17.3333 14.9998 16.5833 14.9998 15.6667C14.9998 14.75 14.2498 14 13.3331 14Z"/>
</mask>
<path fill-rule="evenodd" clip-rule="evenodd" d="M5.00013 14C4.08346 14 3.3418 14.75 3.3418 15.6667C3.3418 16.5833 4.08346 17.3333 5.00013 17.3333C5.9168 17.3333 6.6668 16.5833 6.6668 15.6667C6.6668 14.75 5.9168 14 5.00013 14ZM0 2.33317H1.66667L4.66667 8.65817L3.54167 10.6998C3.40833 10.9332 3.33333 11.2082 3.33333 11.4998C3.33333 12.4165 4.08333 13.1665 5 13.1665H15V11.4998H5.35C5.23333 11.4998 5.14167 11.4082 5.14167 11.2915L5.16667 11.1915L5.91667 9.83317H12.125C12.75 9.83317 13.3 9.4915 13.5833 8.97484L16.5667 3.5665C16.6333 3.44984 16.6667 3.30817 16.6667 3.1665C16.6667 2.70817 16.2917 2.33317 15.8333 2.33317H3.50833L2.725 0.666504H0V2.33317ZM13.3331 14C12.4165 14 11.6748 14.75 11.6748 15.6667C11.6748 16.5833 12.4165 17.3333 13.3331 17.3333C14.2498 17.3333 14.9998 16.5833 14.9998 15.6667C14.9998 14.75 14.2498 14 13.3331 14Z" fill="white"/>
<path d="M0 2.33317H-1V3.33317H0V2.33317ZM1.66667 2.33317L2.57019 1.90462L2.29914 1.33317H1.66667V2.33317ZM4.66667 8.65817L5.5425 9.14078L5.78963 8.69229L5.57019 8.22962L4.66667 8.65817ZM3.54167 10.6998L4.40991 11.196L4.41376 11.1892L4.41751 11.1824L3.54167 10.6998ZM15 13.1665V14.1665H16V13.1665H15ZM15 11.4998H16V10.4998H15V11.4998ZM5.14167 11.2915L4.17152 11.049L4.14167 11.1684V11.2915H5.14167ZM5.16667 11.1915L4.29125 10.7081L4.22817 10.8224L4.19652 10.949L5.16667 11.1915ZM5.91667 9.83317V8.83317H5.32651L5.04125 9.34981L5.91667 9.83317ZM13.5833 8.97484L12.7077 8.49183L12.7065 8.494L13.5833 8.97484ZM16.5667 3.5665L15.6984 3.07036L15.6947 3.0769L15.6911 3.0835L16.5667 3.5665ZM3.50833 2.33317L2.60331 2.75853L2.87339 3.33317H3.50833V2.33317ZM2.725 0.666504L3.63002 0.241143L3.35994 -0.333496H2.725V0.666504ZM0 0.666504V-0.333496H-1V0.666504H0ZM5.00013 13C3.52467 13 2.3418 14.2043 2.3418 15.6667H4.3418C4.3418 15.2957 4.64226 15 5.00013 15V13ZM2.3418 15.6667C2.3418 17.1291 3.52467 18.3333 5.00013 18.3333V16.3333C4.64226 16.3333 4.3418 16.0376 4.3418 15.6667H2.3418ZM5.00013 18.3333C6.46908 18.3333 7.6668 17.1356 7.6668 15.6667H5.6668C5.6668 16.031 5.36451 16.3333 5.00013 16.3333V18.3333ZM7.6668 15.6667C7.6668 14.1977 6.46908 13 5.00013 13V15C5.36451 15 5.6668 15.3023 5.6668 15.6667H7.6668ZM0 3.33317H1.66667V1.33317H0V3.33317ZM0.763147 2.76172L3.76315 9.08672L5.57019 8.22962L2.57019 1.90462L0.763147 2.76172ZM3.79083 8.17557L2.66583 10.2172L4.41751 11.1824L5.5425 9.14078L3.79083 8.17557ZM2.67342 10.2037C2.45248 10.5904 2.33333 11.0367 2.33333 11.4998H4.33333C4.33333 11.3796 4.36419 11.276 4.40991 11.196L2.67342 10.2037ZM2.33333 11.4998C2.33333 12.9688 3.53105 14.1665 5 14.1665V12.1665C4.63562 12.1665 4.33333 11.8642 4.33333 11.4998H2.33333ZM5 14.1665H15V12.1665H5V14.1665ZM16 13.1665V11.4998H14V13.1665H16ZM15 10.4998H5.35V12.4998H15V10.4998ZM5.35 10.4998C5.78562 10.4998 6.14167 10.8559 6.14167 11.2915H4.14167C4.14167 11.9605 4.68105 12.4998 5.35 12.4998V10.4998ZM6.11181 11.534L6.13681 11.434L4.19652 10.949L4.17152 11.049L6.11181 11.534ZM6.04209 11.6749L6.79209 10.3165L5.04125 9.34981L4.29125 10.7081L6.04209 11.6749ZM5.91667 10.8332H12.125V8.83317H5.91667V10.8332ZM12.125 10.8332C13.1213 10.8332 14.0042 10.2871 14.4601 9.45567L12.7065 8.494C12.5958 8.69596 12.3787 8.83317 12.125 8.83317V10.8332ZM14.459 9.45784L17.4423 4.04951L15.6911 3.0835L12.7077 8.49183L14.459 9.45784ZM17.4349 4.06264C17.6 3.7738 17.6667 3.4562 17.6667 3.1665H15.6667C15.6667 3.15988 15.6673 3.15031 15.6707 3.13687C15.6739 3.12362 15.6813 3.10032 15.6984 3.07036L17.4349 4.06264ZM17.6667 3.1665C17.6667 2.15589 16.844 1.33317 15.8333 1.33317V3.33317C15.7394 3.33317 15.6667 3.26045 15.6667 3.1665H17.6667ZM15.8333 1.33317H3.50833V3.33317H15.8333V1.33317ZM4.41336 1.90781L3.63002 0.241143L1.81998 1.09187L2.60331 2.75853L4.41336 1.90781ZM2.725 -0.333496H0V1.6665H2.725V-0.333496ZM-1 0.666504V2.33317H1V0.666504H-1ZM13.3331 13C11.8577 13 10.6748 14.2043 10.6748 15.6667H12.6748C12.6748 15.2957 12.9753 15 13.3331 15V13ZM10.6748 15.6667C10.6748 17.1291 11.8577 18.3333 13.3331 18.3333V16.3333C12.9753 16.3333 12.6748 16.0376 12.6748 15.6667H10.6748ZM13.3331 18.3333C14.8021 18.3333 15.9998 17.1356 15.9998 15.6667H13.9998C13.9998 16.031 13.6975 16.3333 13.3331 16.3333V18.3333ZM15.9998 15.6667C15.9998 14.1977 14.8021 13 13.3331 13V15C13.6975 15 13.9998 15.3023 13.9998 15.6667H15.9998Z" fill="#EEEEEE" mask="url(#path-1-inside-1_2530_1452)"/>
</svg>
