<svg width="189" height="65" viewBox="0 0 189 65" fill="none" xmlns="http://www.w3.org/2000/svg">
<path d="M0 0V56.0471C12.5127 58.5028 54.6767 65 94.2405 65C133.804 65 175.954 58.5028 188.467 56.0471V0H0Z" fill="url(#paint0_linear_2532_1459)"/>
<path d="M170.265 33.0047C169.663 33.1444 169.046 33.215 168.426 33.2152C167.764 33.2299 167.106 33.1005 166.501 32.8363C165.996 32.6151 165.549 32.2839 165.194 31.868C164.838 31.456 164.57 30.979 164.404 30.4647C164.217 29.8645 164.125 29.2398 164.131 28.6124C164.11 27.8168 164.231 27.0236 164.49 26.2689C164.685 25.7043 165.009 25.1906 165.438 24.7674C165.845 24.3868 166.337 24.1034 166.875 23.9395C167.952 23.6137 169.099 23.5797 170.193 23.8413C170.687 23.96 171.168 24.1245 171.63 24.3324L172.047 24.5148V20.6558H171.86C171.277 20.418 170.67 20.2393 170.05 20.1226C168.375 19.7949 166.641 19.9014 165.022 20.4313C164.017 20.7559 163.092 21.2816 162.307 21.9749C161.463 22.7408 160.797 23.6737 160.353 24.7113C159.816 25.9878 159.557 27.3592 159.591 28.7387C159.571 29.985 159.795 31.2236 160.252 32.3872C160.651 33.381 161.269 34.2768 162.062 35.0114C162.851 35.6766 163.77 36.1779 164.763 36.4848C165.814 36.8276 166.916 36.9983 168.024 36.99C168.791 36.9883 169.556 36.9131 170.308 36.7655C170.933 36.641 171.544 36.4577 172.133 36.2182L172.334 36.134V32.275L171.903 32.4434C171.393 32.6453 170.87 32.814 170.337 32.9486" fill="#004879"/>
<path d="M139.953 20.3052H136.491L136.376 21.2314C135.95 20.8472 135.465 20.53 134.939 20.2912C133.863 19.8623 132.711 19.643 131.549 19.6456C130.403 19.6274 129.265 19.8326 128.202 20.2491C127.217 20.6398 126.334 21.2389 125.616 22.0032C124.882 22.787 124.32 23.7085 123.964 24.7115C123.204 26.9915 123.204 29.4479 123.964 31.7279C124.314 32.732 124.866 33.6576 125.587 34.4503C126.307 35.2095 127.19 35.8037 128.173 36.1903C129.26 36.6139 130.422 36.8237 131.592 36.8078C132.386 36.9214 133.196 36.8207 133.936 36.5164C134.675 36.2121 135.315 35.716 135.787 35.0817V36.6253H139.967C139.824 31.6016 139.809 26.1007 139.967 20.3052H139.953ZM135.169 30.3386C135.023 30.8822 134.769 31.3924 134.422 31.8402C134.122 32.2138 133.739 32.516 133.301 32.7242C132.286 33.1152 131.156 33.1152 130.141 32.7242C129.703 32.5115 129.316 32.2102 129.006 31.8402C128.659 31.3924 128.405 30.8822 128.259 30.3386C127.876 28.9603 127.876 27.5072 128.259 26.1288C128.405 25.5853 128.659 25.075 129.006 24.6273C129.302 24.2497 129.686 23.9466 130.127 23.7432C130.577 23.5428 131.068 23.4422 131.563 23.4485C132.156 23.4435 132.745 23.5433 133.301 23.7432C133.748 23.9428 134.138 24.2464 134.436 24.6273C134.784 25.075 135.038 25.5853 135.183 26.1288C135.548 27.5094 135.548 28.958 135.183 30.3386" fill="#004879"/>
<path d="M61.544 20.1929L56.1712 25.7499V20.1929H51.7896V36.6393H56.1712V29.23L61.975 36.6113L62.0037 36.6393H67.1468L59.6908 27.3777L66.6152 20.1929H61.544Z" fill="#004879"/>
<path d="M23.7186 18.5928L20.9459 23.0973C19.9547 24.6129 19.0927 26.2407 18.5756 27.2089L18.3313 27.658L18.1302 27.2931C18.044 27.1247 17.9291 26.9423 17.8285 26.7318C17.297 25.7495 16.5643 24.3883 15.7167 23.0973L12.8436 18.5928H8.39014V36.6249H12.6999V28.8648C12.6999 27.4615 12.6999 26.2547 12.5993 25.511L12.5275 24.4304L13.0303 25.3987C13.4469 26.2126 14.1365 27.3212 14.6249 28.107L17.2395 32.3169H19.1358L21.7504 28.107C22.3404 27.1993 22.8822 26.2625 23.3738 25.3005L23.9771 24.4164V25.4969C23.9771 26.4371 23.8766 27.5597 23.8766 28.7104V36.6249H28.1864V18.5928H23.7186Z" fill="#004879"/>
<path d="M43.5723 20.1929L38.3431 27.5601C37.3375 28.9634 36.6049 30.1983 36.2744 30.7456C36.3463 29.5528 36.3894 28.5003 36.3894 27.504V20.1929H32.0796V36.6393H36.3175L41.5611 29.2861C42.4662 28.0092 43.2132 26.8023 43.6298 26.1007C43.6298 27.2794 43.5149 28.3459 43.5149 29.3282V36.6393H47.8246V20.1929H43.5723Z" fill="#004879"/>
<path d="M94.7439 19.7861C89.802 19.7861 86.3398 23.3083 86.3398 28.3741C86.3398 33.44 89.802 36.9903 94.7439 36.9903C95.8895 37.0056 97.026 36.7903 98.0827 36.358C99.1394 35.9256 100.094 35.2853 100.886 34.4771C101.679 33.6688 102.292 32.7098 102.689 31.6599C103.085 30.6099 103.256 29.4915 103.191 28.3741C103.267 27.2556 103.104 26.1339 102.711 25.0806C102.318 24.0274 101.705 23.0658 100.91 22.2574C100.114 21.4491 99.1554 20.8117 98.0937 20.3862C97.032 19.9606 95.8911 19.7562 94.7439 19.7861ZM94.7439 33.4961C92.3304 33.4961 90.8364 31.5315 90.8364 28.3741C90.8364 25.2168 92.273 23.2802 94.7439 23.2802C97.2148 23.2802 98.6801 25.2589 98.6801 28.3741C98.6801 31.4894 97.2435 33.4961 94.7726 33.4961" fill="#004879"/>
<path d="M110.172 20.1929V20.2771C109.483 25.6095 108.233 30.1 106.882 31.9945C106.725 32.2959 106.487 32.5502 106.193 32.7305C105.9 32.9108 105.562 33.0105 105.216 33.0189C105.034 33.0345 104.852 33.0345 104.67 33.0189H104.555V36.8077H104.627C104.979 36.8937 105.342 36.9315 105.704 36.92C106.517 36.9619 107.328 36.8071 108.065 36.4693C108.802 36.1314 109.442 35.621 109.928 34.9835C111.609 32.9206 112.916 28.9213 113.534 24.0238H116.407V36.6534H120.803V20.1929H110.172Z" fill="#004879"/>
<path d="M74.9042 19.7856C72.7479 19.7846 70.6067 20.1356 68.5688 20.8241V44.7921L72.8786 43.9923V36.6391C73.6818 36.8664 74.5133 36.9845 75.3495 36.9899C76.5178 37.0382 77.6835 36.8478 78.7722 36.431C79.8608 36.0141 80.8484 35.38 81.6718 34.569C82.4953 33.7581 83.1364 32.7882 83.5542 31.7214C83.972 30.6547 84.1574 29.5145 84.0984 28.3737C84.0984 22.915 80.7511 19.7856 74.8898 19.7856H74.9042ZM75.0335 33.3834C74.2967 33.3968 73.5644 33.2681 72.8786 33.0046V23.6026C73.4857 23.4322 74.1145 23.3471 74.7462 23.35C77.8779 23.35 79.6162 25.1322 79.6162 28.3737C79.6162 31.6153 77.9354 33.3834 75.0335 33.3834Z" fill="#004879"/>
<path d="M157.15 34.2396L155.929 32.724L151.619 27.3775L155.138 23.715L158.543 20.1927H153.472L151.719 22.003L149.981 23.8553L148.113 25.7918V20.1787H143.804V36.6392H148.113V29.2299L149.794 31.3769L151.734 33.8326L152.078 34.2817C152.772 35.1233 153.531 35.9114 154.348 36.6392C157.915 39.9455 162.62 41.8278 167.536 41.9155C163.384 40.6526 159.793 37.3549 157.15 34.2396Z" fill="#004879"/>
<path d="M178.325 22.0172C178.535 21.976 178.726 21.866 178.864 21.7054C179.002 21.5448 179.081 21.343 179.086 21.1332C179.096 20.9396 179.037 20.7487 178.919 20.5928C178.801 20.4369 178.632 20.3254 178.44 20.2772C178.257 20.2295 178.069 20.2059 177.879 20.207H176.859V23.5187H177.563V22.1997H177.693C177.822 22.1997 178.066 22.6768 178.411 23.2802L178.555 23.5187H179.359L179.244 23.3223C179.019 22.8478 178.724 22.4082 178.368 22.0172H178.325ZM177.75 21.6524H177.606V20.7683H177.75C177.879 20.7486 178.01 20.7486 178.138 20.7683C178.218 20.7938 178.285 20.8456 178.33 20.9147C178.375 20.9839 178.393 21.0661 178.382 21.1472C178.382 21.5541 177.98 21.6103 177.75 21.6103V21.6524ZM177.994 18.8037C177.168 18.8037 176.375 19.1245 175.79 19.6956C175.205 20.2667 174.877 21.0412 174.877 21.8488C174.877 22.6565 175.205 23.431 175.79 24.0021C176.375 24.5731 177.168 24.894 177.994 24.894C178.821 24.894 179.614 24.5731 180.199 24.0021C180.783 23.431 181.112 22.6565 181.112 21.8488C181.112 21.0412 180.783 20.2667 180.199 19.6956C179.614 19.1245 178.821 18.8037 177.994 18.8037ZM177.994 24.2344C177.503 24.2625 177.015 24.146 176.593 23.9C176.17 23.654 175.833 23.2898 175.625 22.8545C175.417 22.4192 175.347 21.933 175.425 21.4586C175.503 20.9843 175.725 20.5437 176.062 20.194C176.399 19.8442 176.836 19.6013 177.316 19.4968C177.796 19.3923 178.297 19.4309 178.755 19.6076C179.212 19.7844 179.604 20.0912 179.881 20.4882C180.158 20.8853 180.306 21.3544 180.307 21.8348C180.327 22.1431 180.282 22.452 180.174 22.7425C180.067 23.0331 179.9 23.299 179.683 23.5239C179.466 23.7488 179.204 23.9278 178.914 24.0501C178.624 24.1723 178.311 24.235 177.994 24.2344Z" fill="#004879"/>
<path d="M170.883 32.2744C170.282 32.421 169.664 32.4918 169.044 32.4849C168.388 32.4984 167.736 32.374 167.134 32.1201C166.627 31.8942 166.176 31.5639 165.812 31.1518C165.464 30.7366 165.201 30.2603 165.036 29.7485C164.843 29.1493 164.746 28.5244 164.749 27.8962C164.732 27.1043 164.858 26.3156 165.122 25.5668C165.314 25.004 165.633 24.4908 166.056 24.0652C166.463 23.6842 166.955 23.4008 167.493 23.2373C168.569 22.9115 169.717 22.8775 170.811 23.1391C171.305 23.2592 171.786 23.4236 172.248 23.6302L172.679 23.8127V19.9396L172.492 19.8554C171.901 19.6287 171.291 19.455 170.668 19.3362C168.994 19.0105 167.262 19.112 165.64 19.6309C164.641 19.9665 163.722 20.4964 162.939 21.1885C162.088 21.9507 161.416 22.8843 160.971 23.9249C160.436 25.1969 160.176 26.5635 160.209 27.9383C160.189 29.1891 160.413 30.4323 160.87 31.6009C161.248 32.5872 161.849 33.4778 162.627 34.2066C163.405 34.9354 164.342 35.4836 165.367 35.8107C166.42 36.1438 167.521 36.3096 168.628 36.3019C169.39 36.3047 170.15 36.2342 170.898 36.0914C171.526 35.9646 172.142 35.7814 172.736 35.5441L172.923 35.4599V31.671L172.492 31.8394C171.985 32.0446 171.461 32.2089 170.926 32.3306" fill="white"/>
<path d="M140.571 19.6454H137.123L136.994 20.5715C136.572 20.1816 136.087 19.8638 135.557 19.6313C134.465 19.2091 133.298 18.9994 132.124 19.0139C131 19.016 129.888 19.2304 128.848 19.6454C127.864 20.0361 126.981 20.6352 126.262 21.3995C125.508 22.1536 124.921 23.0517 124.539 24.0376C124.141 25.1562 123.947 26.3339 123.964 27.5178C123.955 28.701 124.149 29.8774 124.539 30.9979C124.905 31.9913 125.471 32.9027 126.205 33.6782C126.935 34.4618 127.839 35.0714 128.848 35.4604C129.936 35.8802 131.098 36.0853 132.267 36.0638C133.065 36.1784 133.88 36.0722 134.619 35.7572C135.358 35.4421 135.992 34.9309 136.448 34.2816V35.9094H140.643C140.499 30.8857 140.47 25.3708 140.643 19.5892L140.571 19.6454ZM135.873 29.6227C135.711 30.1626 135.453 30.6707 135.112 31.1242C134.811 31.4938 134.428 31.7913 133.991 31.9942C132.984 32.4004 131.853 32.4004 130.845 31.9942C130.402 31.7954 130.013 31.4973 129.71 31.1242C129.328 30.6817 129.035 30.1721 128.848 29.6227C128.487 28.2416 128.487 26.794 128.848 25.4129C129.004 24.8504 129.267 24.3218 129.624 23.8552C129.924 23.4809 130.307 23.1785 130.745 22.9711C131.194 22.7675 131.686 22.6668 132.181 22.6765C132.77 22.6631 133.356 22.7632 133.905 22.9711C134.352 23.1707 134.741 23.4743 135.04 23.8552C135.384 24.3019 135.642 24.8059 135.801 25.3427C136.163 26.7238 136.163 28.1714 135.801 29.5525" fill="white"/>
<path d="M62.1765 19.4775L56.8037 25.0345V19.4775H52.4077V35.924H56.8037V28.5006L62.5931 35.8819L62.6219 35.924H67.7649L60.309 26.6623L67.2333 19.4775H62.1765Z" fill="white"/>
<path d="M24.3501 17.8774L21.5775 22.3679C20.5719 23.8975 19.7099 25.5253 19.1928 26.4936L18.9485 26.9426L18.7618 26.5778L18.4457 26.0165C17.9142 25.0342 17.1815 23.673 16.3339 22.382L13.4608 17.8774H9.00732V35.9096H13.3171V28.1495C13.3171 26.7462 13.3171 25.5394 13.2309 24.7956L13.1447 23.7011L13.6475 24.6834C14.0785 25.4973 14.7537 26.6059 15.2565 27.3917L17.8711 31.6015H19.7674L22.382 27.3917C22.9685 26.4845 23.5056 25.5476 23.991 24.5851L24.4794 23.6169V24.6974C24.4794 25.6376 24.3645 26.7602 24.3645 27.9109V35.8254H28.6743V17.8774H24.3501Z" fill="white"/>
<path d="M44.1902 19.4775L38.961 26.8307C37.9554 28.234 37.2084 29.4689 36.878 30.0162C36.9498 28.8374 36.9929 27.785 36.9929 26.7886V19.4775H32.6831V35.924H36.9067L42.1503 28.5708C43.0553 27.2938 43.8023 26.087 44.2333 25.3854C44.1471 26.5641 44.1184 27.6306 44.1184 28.6129V35.924H48.4282V19.4775H44.1902Z" fill="white"/>
<path d="M95.3758 19.0698C90.4195 19.0698 86.9717 22.5921 86.9717 27.6439C86.9717 32.6957 90.4195 36.2741 95.3758 36.2741C96.5208 36.2855 97.6561 36.067 98.7112 35.6322C99.7662 35.1974 100.719 34.5555 101.509 33.7463C102.3 32.9372 102.912 31.978 103.308 30.9283C103.703 29.8785 103.874 28.7606 103.809 27.6439C103.809 22.5921 100.346 19.0698 95.3758 19.0698ZM95.3758 32.7799C92.9336 32.7799 91.497 30.8714 91.497 27.6439C91.497 24.4163 92.9336 22.564 95.4045 22.564C97.8754 22.564 99.312 24.5146 99.312 27.6439C99.312 30.7732 97.8754 32.7799 95.4045 32.7799" fill="white"/>
<path d="M110.791 19.4775V19.5617C110.101 24.8942 108.837 29.3847 107.501 31.2791C107.342 31.5713 107.107 31.8173 106.819 31.9922C106.532 32.1671 106.202 32.2648 105.863 32.2755H105.317H105.145V36.0643C105.499 36.1391 105.861 36.172 106.222 36.1626C107.048 36.2165 107.874 36.069 108.626 35.7334C109.378 35.3978 110.034 34.8846 110.532 34.2401C112.199 32.1632 113.506 28.1779 114.124 23.2804H116.997V35.91H121.307V19.4775H110.791Z" fill="white"/>
<path d="M75.5222 19.0698C73.372 19.071 71.2366 19.417 69.2012 20.0942V44.0623L73.5828 43.2764V35.9232C74.3809 36.1514 75.2078 36.2695 76.0393 36.2741C77.2095 36.3224 78.3771 36.1316 79.4674 35.7141C80.5578 35.2965 81.547 34.6613 82.3718 33.8491C83.1965 33.0368 83.8387 32.0654 84.2573 30.997C84.6758 29.9285 84.8615 28.7864 84.8025 27.6439C84.8025 22.1991 81.4409 19.0698 75.5796 19.0698H75.5222ZM75.7233 32.6676C74.9714 32.6784 74.2246 32.5449 73.5253 32.2747V22.8727C74.132 22.7004 74.7611 22.6153 75.3929 22.6201C78.5246 22.6201 80.2486 24.4023 80.2486 27.6298C80.2486 30.8574 78.5677 32.6676 75.6946 32.6676" fill="white"/>
<path d="M157.767 33.5101L156.546 31.9945L152.236 26.6621L155.77 22.9995L159.16 19.4773H154.103L152.351 21.2875L150.627 23.0697L148.745 25.0062V19.3931H144.435V35.9237H148.745V28.5004L150.397 30.6474L152.336 33.1172L152.681 33.5522C153.366 34.4057 154.125 35.1993 154.951 35.9237C158.515 39.2347 163.221 41.1177 168.139 41.2001C163.973 39.9371 160.381 36.6394 157.738 33.5101" fill="white"/>
<path d="M178.942 21.3017C179.156 21.2623 179.35 21.151 179.489 20.987C179.628 20.8229 179.704 20.6165 179.704 20.4036C179.708 20.2111 179.647 20.0227 179.53 19.8678C179.413 19.7129 179.247 19.6003 179.057 19.5476C178.871 19.5239 178.683 19.5239 178.497 19.5476H177.477V22.8593H178.181V21.5402H178.281C178.583 21.8546 178.821 22.221 178.985 22.6207L179.129 22.8593H179.933L179.833 22.6628C179.604 22.187 179.304 21.7472 178.942 21.3578V21.3017ZM178.324 20.9789H178.181V20.0948H178.339C178.467 20.076 178.598 20.076 178.727 20.0948C178.804 20.1229 178.868 20.1757 178.91 20.2447C178.952 20.3136 178.968 20.3944 178.957 20.4737C178.957 20.8666 178.569 20.9228 178.324 20.9228V20.9789ZM178.569 18.1162C177.777 18.1687 177.035 18.5131 176.492 19.0797C175.95 19.6463 175.649 20.3929 175.649 21.1683C175.649 21.9438 175.95 22.6904 176.492 23.257C177.035 23.8236 177.777 24.168 178.569 24.2205C179.361 24.168 180.103 23.8236 180.645 23.257C181.187 22.6904 181.488 21.9438 181.488 21.1683C181.488 20.3929 181.187 19.6463 180.645 19.0797C180.103 18.5131 179.361 18.1687 178.569 18.1162ZM178.569 23.5609C177.951 23.5147 177.375 23.2426 176.954 22.799C176.534 22.3554 176.3 21.773 176.3 21.1683C176.3 20.5637 176.534 19.9813 176.954 19.5377C177.375 19.0941 177.951 18.822 178.569 18.7758C179.186 18.822 179.763 19.0941 180.183 19.5377C180.604 19.9813 180.838 20.5637 180.838 21.1683C180.838 21.773 180.604 22.3554 180.183 22.799C179.763 23.2426 179.186 23.5147 178.569 23.5609Z" fill="white"/>
<defs>
<linearGradient id="paint0_linear_2532_1459" x1="0" y1="32.5" x2="188.467" y2="32.5" gradientUnits="userSpaceOnUse">
<stop stop-color="#A8044E"/>
<stop offset="0.62" stop-color="#65468D"/>
<stop offset="1" stop-color="#3971B5"/>
</linearGradient>
</defs>
</svg>
